<?xml version="1.0" encoding="UTF-8" standalone="no"?>
<!-- Created with Inkscape (http://www.inkscape.org/) -->

<svg
   width="42.585983mm"
   height="16.689177mm"
   viewBox="0 0 42.585983 16.689177"
   version="1.1"
   id="svg1"
   xml:space="preserve"
   xmlns:xlink="http://www.w3.org/1999/xlink"
   xmlns="http://www.w3.org/2000/svg"
   xmlns:svg="http://www.w3.org/2000/svg"><defs
     id="defs1"><linearGradient
       id="linearGradient21"><stop
         style="stop-color:#063c7c;stop-opacity:0;"
         offset="0"
         id="stop20" /><stop
         style="stop-color:#007bcd;stop-opacity:0.94339621;"
         offset="1"
         id="stop21" /></linearGradient><linearGradient
       id="linearGradient19"><stop
         style="stop-color:#063c7c;stop-opacity:1;"
         offset="0"
         id="stop18" /><stop
         style="stop-color:#029bff;stop-opacity:1;"
         offset="1"
         id="stop19" /></linearGradient><linearGradient
       xlink:href="#linearGradient19"
       id="linearGradient11"
       x1="110.43664"
       y1="16.372019"
       x2="111.12672"
       y2="84.20845"
       gradientUnits="userSpaceOnUse"
       gradientTransform="translate(3.074697,-14.25072)" /><linearGradient
       xlink:href="#linearGradient19"
       id="linearGradient12"
       gradientUnits="userSpaceOnUse"
       x1="110.43664"
       y1="16.372019"
       x2="111.12672"
       y2="84.20845"
       gradientTransform="matrix(1,0,0,-1,44.251549,70.165285)" /><linearGradient
       xlink:href="#linearGradient19"
       id="linearGradient13"
       gradientUnits="userSpaceOnUse"
       gradientTransform="translate(-80.258198,-14.727663)"
       x1="110.43664"
       y1="16.372019"
       x2="111.12672"
       y2="84.20845" /><linearGradient
       xlink:href="#linearGradient19"
       id="linearGradient14"
       gradientUnits="userSpaceOnUse"
       gradientTransform="matrix(1,0,0,-1,-37.855894,70.058365)"
       x1="110.43664"
       y1="16.372019"
       x2="111.12672"
       y2="84.20845" /><linearGradient
       xlink:href="#linearGradient21"
       id="linearGradient20"
       gradientUnits="userSpaceOnUse"
       gradientTransform="translate(3.086153,-14.23421)"
       x1="109.28136"
       y1="28.07439"
       x2="109.10989"
       y2="53.796532" /><linearGradient
       xlink:href="#linearGradient21"
       id="linearGradient22"
       gradientUnits="userSpaceOnUse"
       gradientTransform="translate(-80.200531,-14.666213)"
       x1="109.28136"
       y1="28.07439"
       x2="109.10989"
       y2="53.796532" /></defs><g
     id="layer1"
     transform="translate(-164.59306,-5.4115221)"><rect
       style="fill:#f9f9f9;fill-opacity:0.996078;stroke-width:0.264583"
       id="rect4"
       width="230.71666"
       height="323.85001"
       x="-4.173686"
       y="-8.5762568" /><g
       id="g1"
       transform="matrix(0.22788798,0,0,0.22788798,164.78702,5.411524)"><path
         id="path2-42"
         style="fill:url(#linearGradient11);fill-opacity:1;stroke-width:0.264583"
         d="M 113.97134,1.0631976 83.332899,14.588475 v 27.50994 l 31.006381,13.70924 30.17851,-13.70924 c 0.0164,-9.09233 0.47717,-17.64809 0.27595,-26.95804 z m -0.27595,4.32429 25.76225,11.0411774 0.5519,0.27596 0.092,23.46161 -26.22217,11.77706 -26.130191,-11.50111 0.27647,-23.73756 z" /><path
         id="path2-42-9"
         style="fill:url(#linearGradient13);fill-opacity:1;stroke-width:0.264583"
         d="M 30.638441,0.58625464 1.0244059e-6,14.111535 v 27.50994 L 31.006381,55.330715 61.184891,41.621475 c 0.0164,-9.09233 0.47717,-17.64809 0.27595,-26.95804 z m -0.27595,4.32428996 25.76225,11.0411804 0.5519,0.27596 0.092,23.46161 -26.22217,11.77706 -26.13019,-11.50111 0.27647,-23.73756 z" /><path
         id="path2-42-8"
         style="fill:url(#linearGradient12);fill-opacity:1;stroke-width:0.264583"
         d="M 155.14819,54.851375 124.50975,41.326095 V 13.816155 L 155.51613,0.10691664 185.69464,13.816155 c 0.0164,9.09233 0.47717,17.64809 0.27595,26.95804 z m -0.27595,-4.32429 25.76225,-11.04118 0.5519,-0.27596 0.092,-23.46161 -26.22217,-11.7770584 -26.13019,11.5011084 0.27647,23.73756 z" /><path
         id="path2-42-8-3"
         style="fill:url(#linearGradient14);fill-opacity:1;stroke-width:0.264583"
         d="M 73.040746,54.744455 42.402306,41.219175 V 13.709235 L 73.408686,-7.3660497e-6 103.5872,13.709235 c 0.0164,9.09233 0.47717,17.64809 0.27595,26.95804 z m -0.27595,-4.32429 25.762253,-11.04118 0.5519,-0.27596 0.092,-23.46161 -26.222173,-11.7770624 -26.13019,11.5011124 0.27647,23.73756 z" /><path
         id="path2-42-7"
         style="fill:url(#linearGradient20);fill-opacity:1;stroke-width:0.264583"
         d="M 113.98281,1.0797026 83.344369,14.604975 v 27.50994 l 31.006381,13.70924 30.17851,-13.70924 c 0.0164,-9.09233 0.47717,-17.64809 0.27595,-26.95804 z m -0.27595,4.3243 25.76225,11.0411624 0.5519,0.27596 0.092,23.46161 -26.22217,11.77706 -26.130191,-11.50111 0.27647,-23.73756 z" /><path
         id="path2-42-7-3"
         style="fill:url(#linearGradient22);fill-opacity:1;stroke-width:0.264583"
         d="M 30.696125,0.64769764 0.05768503,14.172965 v 27.50994 l 31.00637997,13.70924 30.17851,-13.70924 c 0.0164,-9.09233 0.47717,-17.64809 0.27595,-26.95804 z m -0.27595,4.32429996 25.76225,11.0411574 0.5519,0.27596 0.092,23.46161 -26.22217,11.77706 -26.13019,-11.50111 0.27647,-23.73756 z" /><path
         style="fill:#2355de;fill-opacity:1;stroke-width:0.264583"
         d="m 140.02406,40.073615 4.68426,2.08189"
         id="path19" /></g><text
       xml:space="preserve"
       style="font-style:normal;font-variant:normal;font-weight:normal;font-stretch:normal;font-size:5.79324px;line-height:0;font-family:'Bank Gothic Light';-inkscape-font-specification:'Bank Gothic Light, ';text-align:start;letter-spacing:0px;writing-mode:lr-tb;direction:ltr;text-anchor:start;fill:#002c6d;fill-opacity:1;stroke-width:0.120692"
       x="164.40189"
       y="22.100698"
       id="text46"><tspan
         id="tspan46"
         style="fill:#002c6d;fill-opacity:1;stroke-width:0.120692"
         x="164.40189"
         y="22.100698">ALPHA </tspan><tspan
         style="fill:#002c6d;fill-opacity:1;stroke-width:0.120692"
         x="164.40189"
         y="22.100698"
         id="tspan47" /></text><text
       xml:space="preserve"
       style="font-style:normal;font-variant:normal;font-weight:normal;font-stretch:normal;font-size:4.97831px;line-height:0;font-family:'Bank Gothic Light';-inkscape-font-specification:'Bank Gothic Light, ';text-align:start;letter-spacing:0px;writing-mode:lr-tb;direction:ltr;text-anchor:start;fill:#007bcd;fill-opacity:1;stroke-width:0.103714"
       x="180.91295"
       y="22.680929"
       id="text48"
       transform="scale(1.0327049,0.96833084)"><tspan
         id="tspan48"
         style="fill:#007bcd;fill-opacity:1;stroke-width:0.103714"
         x="180.91295"
         y="22.680929">CRISTO</tspan><tspan
         style="fill:#007bcd;fill-opacity:1;stroke-width:0.103714"
         x="180.91295"
         y="22.680929"
         id="tspan49" /></text></g></svg>
